<svg width="1159" height="1159" viewBox="0 0 1159 1159" fill="none" xmlns="http://www.w3.org/2000/svg">
<path d="M309.062 147.045C360.088 148.714 430.382 119.597 465.182 82.3783L516.031 27.9961C550.931 -9.26434 607.956 -9.37173 642.793 27.9506L693.691 82.3694C728.528 119.692 798.843 148.817 849.868 147.06L924.338 144.57C975.363 142.813 1015.71 183.17 1013.94 234.237L1011.44 308.647C1009.77 359.672 1038.89 429.967 1076.11 464.766L1130.49 515.615C1167.75 550.516 1167.86 607.541 1130.54 642.378L1076.12 693.276C1038.8 728.113 1009.67 798.428 1011.43 849.452L1013.92 923.923C1015.67 974.947 975.318 1015.29 924.25 1013.53L849.84 1011.03C798.815 1009.36 728.521 1038.47 693.721 1075.69L642.872 1130.08C607.972 1167.34 550.947 1167.44 516.11 1130.12L465.211 1075.7C430.374 1038.38 360.059 1009.25 309.035 1011.01L234.564 1013.5C183.54 1015.26 143.193 974.902 144.962 923.835L147.461 849.425C149.129 798.4 120.012 728.105 82.7938 693.306L28.4115 642.457C-8.84888 607.556 -8.95632 550.531 28.366 515.694L82.7848 464.796C120.107 429.959 149.233 359.644 147.475 308.62L144.986 234.149C143.228 183.125 183.585 142.777 234.653 144.547L309.062 147.045Z" fill="#3D008F"/>
</svg>
