<svg width="100" height="100" viewBox="0 0 100 100" fill="none" xmlns="http://www.w3.org/2000/svg">
<path d="M42.1978 3.5902C46.4921 5.5357 53.518 5.5357 57.8022 3.5902L64.062 0.747546C68.3563 -1.19796 73.2251 0.808027 74.8782 5.22321L77.2975 11.6645C78.9507 16.0797 83.9203 21.0493 88.3355 22.7025L94.7768 25.1218C99.192 26.7749 101.208 31.6437 99.2524 35.938L96.4098 42.1978C94.4643 46.4921 94.4643 53.518 96.4098 57.8022L99.2524 64.062C101.198 68.3563 99.192 73.2251 94.7768 74.8782L88.3355 77.2975C83.9203 78.9507 78.9507 83.9203 77.2975 88.3355L74.8782 94.7768C73.2251 99.192 68.3563 101.208 64.062 99.2524L57.8022 96.4098C53.508 94.4643 46.482 94.4643 42.1978 96.4098L35.938 99.2524C31.6437 101.198 26.7749 99.192 25.1218 94.7768L22.7025 88.3355C21.0493 83.9203 16.0797 78.9507 11.6645 77.2975L5.22321 74.8782C0.808027 73.2251 -1.20804 68.3563 0.747546 64.062L3.5902 57.8022C5.5357 53.508 5.5357 46.482 3.5902 42.1978L0.747546 35.938C-1.19796 31.6437 0.808027 26.7749 5.22321 25.1218L11.6645 22.7025C16.0797 21.0493 21.0493 16.0797 22.7025 11.6645L25.1218 5.22321C26.7749 0.808027 31.6437 -1.20804 35.938 0.747546L42.1978 3.5902Z" fill="#E0CCFC"/>
<g clip-path="url(#clip0_4036_990)">
<path d="M52.2087 49.8054C60.9514 48.7507 70.4725 38.5287 70.4725 29.6938C70.4725 29.3061 70.4534 28.9305 70.1836 28.6271C69.909 28.3164 69.4982 28.2249 69.0994 28.2249H31.3944C29.6273 28.2249 30.3795 30.8472 30.518 31.8369C31.3419 37.7726 31.4685 43.8191 31.4709 49.8054C31.4709 55.7916 31.3419 61.8381 30.518 67.7738C30.3819 68.7635 29.6297 71.3858 31.3944 71.3858H69.0994C69.4982 71.3858 69.909 71.2943 70.1836 70.9837C70.4534 70.6803 70.4725 70.3046 70.4725 69.9169C70.4725 61.082 60.9514 50.8601 52.2087 49.8054Z" fill="url(#paint0_linear_4036_990)"/>
<path d="M47.9904 36.0884C47.6755 35.3561 47.2198 34.7202 46.6471 34.1989C46.0834 33.6775 45.3968 33.2707 44.6052 32.9844C43.8226 32.7041 42.9531 32.5595 42.0206 32.5595C41.0881 32.5595 40.2096 32.7011 39.4271 32.9844C38.6415 33.2707 37.9549 33.6775 37.3822 34.2049C36.8125 34.7263 36.3627 35.3621 36.0479 36.0944C35.7331 36.8237 35.5712 37.6344 35.5712 38.5053C35.5712 39.3762 35.7331 40.199 36.0479 40.9343C36.3627 41.6726 36.8125 42.3085 37.3822 42.8419C37.9519 43.3693 38.6415 43.7882 39.4241 44.0805C40.2096 44.3668 41.0821 44.5144 42.0206 44.5144C42.9591 44.5144 43.8256 44.3728 44.6082 44.0865C45.3998 43.7912 46.0894 43.3753 46.6531 42.8449C47.2258 42.3145 47.6755 41.6756 47.9904 40.9373C48.3052 40.199 48.4671 39.3823 48.4671 38.5083C48.4671 37.6344 48.3052 36.8298 47.9904 36.0975H47.9874L47.9904 36.0884Z" fill="white"/>
<path d="M46.5635 37.1599C46.3851 36.745 46.1268 36.3846 45.8023 36.0892C45.4829 35.7938 45.0938 35.5632 44.6452 35.401C44.2018 35.2422 43.709 35.1602 43.1806 35.1602C42.6522 35.1602 42.1544 35.2405 41.7109 35.401C41.2658 35.5632 40.8767 35.7938 40.5522 36.0926C40.2294 36.388 39.9745 36.7484 39.7961 37.1633C39.6177 37.5766 39.5259 38.036 39.5259 38.5295C39.5259 39.023 39.6177 39.4892 39.7961 39.9059C39.9745 40.3243 40.2294 40.6846 40.5522 40.9869C40.875 41.2857 41.2658 41.5231 41.7092 41.6888C42.1544 41.851 42.6488 41.9347 43.1806 41.9347C43.7124 41.9347 44.2035 41.8544 44.6469 41.6922C45.0955 41.5248 45.4863 41.2892 45.8057 40.9886C46.1302 40.688 46.3851 40.326 46.5635 39.9076C46.7419 39.4892 46.8336 39.0264 46.8336 38.5312C46.8336 38.036 46.7419 37.58 46.5635 37.165H46.5618L46.5635 37.1599Z" fill="#222222"/>
</g>
<defs>
<linearGradient id="paint0_linear_4036_990" x1="56.0702" y1="28.4609" x2="44.2345" y2="72.0033" gradientUnits="userSpaceOnUse">
<stop stop-color="#CD65FD"/>
<stop offset="0.31" stop-color="#A53EF5"/>
<stop offset="1" stop-color="#6B0AE5"/>
</linearGradient>
<clipPath id="clip0_4036_990">
<rect width="40.3213" height="43.3454" fill="white" transform="translate(30.2408 28.2249)"/>
</clipPath>
</defs>
</svg>
